<?xml version="1.0" encoding="UTF-8"?><svg id="Layer_1" xmlns="http://www.w3.org/2000/svg" viewBox="0 0 76.12 64.43"><defs><style>.cls-1{fill:none;}.cls-2{fill:#fff;}.cls-3{fill:#bb2649;}.cls-4{fill:#d0636e;}</style></defs><g><g><path class="cls-4" d="M63.95,28.32c-.37,0-.78,0-.79,0-.26-.02-.61-.06-1.1-.12-.08-.02-.17-.03-.25-.04-.96-.23-1.14-.81-1.37-1.61,0-.04-.03-.15-.03-.16,0-.03-.03-.46-.04-.62-.07-1.16,1.08-1.63,2.09-1.96,.05-.02,.18-.06,.18-.06,.81-.25,.54-.17,.83-.27,.06-.02,.08,0,.16,.02,.09,.03,.18,.38,.2,.43,.02,.05,.15,.46,.16,.51,0,0,0,.03,.01,.04,.01,.04,.04,.21,.05,.35,0,.1-.06,.18-.15,.22-.04,.01-.07,.03-.09,.03-.02,0-.24,.06-.26,.05-.43,.06-.69,.09-.89,.12-.02,0-.34,.07-.39,.08-.02,0-.04,.01-.06,.01-.17,.04-.32,.07-.45,.18-.15,.13-.2,.33-.14,.55,.09,.36,.34,.68,.77,.67,.13,0,.73,0,.86-.02,0,0,.73-.11,.78-.11,0,0,.05,0,.07-.01,.49-.09,.55,.37,.61,.76,0,.03,0,.04,.01,.07,.02,.13,.12,.61-.04,.67-.43,.18-.63,.22-.73,.22Zm1.4-1.86c.08-.13,.22-.18,.36-.19,.04,0,.08,0,.12,0,.05,0,.11,0,.16,.03,.13,.05,.24,.13,.3,.26,.07,.14,.08,.31,.06,.47,0,.04-.02,.08-.03,.12-.01,.03-.02,.07-.03,.11v.03s-.03,.09-.05,.12c-.02,.04-.04,.07-.08,.09-.09,.09-.2,.15-.33,.16-.14,.01-.29-.07-.37-.18-.12-.17-.22-.38-.22-.6,0-.15,.03-.29,.11-.42Zm-.74-3.07c.08-.12,.2-.2,.34-.2,.06,0,.12,0,.18,0,.06,0,.12,.03,.17,.05,.13,.06,.23,.17,.28,.31,.04,.09,.05,.18,.05,.28,0,.06-.01,.12-.02,.18,0,.04-.02,.08-.03,.12l-.03,.07c-.01,.08-.05,.16-.1,.21-.1,.09-.21,.16-.34,.17-.08,0-.17,0-.24-.05-.07-.05-.13-.1-.18-.18-.05-.08-.09-.17-.12-.25-.04-.12-.06-.24-.06-.37,0-.06,.01-.13,.03-.19,.01-.05,.04-.11,.07-.15Z"/><path class="cls-4" d="M63.06,40.15c-.33-.16-.7-.33-.71-.33-.22-.12-.52-.32-.93-.57-.06-.05-.14-.1-.21-.15-.77-.62-.79-1.24-.59-2.05,.01-.04,.05-.15,.05-.16,0-.03,.2-.43,.24-.58,.38-1.09,1.62-1.03,2.67-.9,.05,0,.18,.02,.19,.02,.84,.12,.56,.07,.87,.1,.06,0,.08,.03,.14,.09,.07,.07,.02,.42,.01,.48,0,.05-.05,.49-.05,.54,0,0,0,.04,0,.04,0,.05-.04,.21-.09,.34-.04,.09-.12,.14-.22,.14-.04,0-.08,0-.1,0-.02,0-.24-.05-.26-.06-.41-.13-.67-.21-.86-.27-.02,0-.34-.08-.39-.09-.02,0-.04,0-.06-.01-.17-.03-.32-.07-.48-.02-.18,.06-.32,.22-.38,.43-.09,.36-.03,.75,.37,.92,.12,.05,.67,.31,.79,.35,0,0,.71,.21,.75,.23,0,0,.05,.01,.06,.02,.48,.12,.37,.57,.27,.96,0,.03-.01,.04-.02,.07-.02,.13-.15,.6-.33,.59-.47-.03-.67-.07-.76-.12Zm2.04-1.1c.12-.08,.27-.07,.4-.02,.04,.01,.07,.03,.11,.05,.05,.03,.1,.05,.14,.09,.1,.1,.17,.22,.18,.37,.01,.16-.04,.32-.13,.46-.02,.03-.05,.07-.07,.1l-.07,.08-.02,.03s-.05,.07-.09,.09c-.03,.03-.07,.05-.11,.05-.13,.04-.25,.05-.37,0-.13-.05-.22-.18-.26-.32-.05-.21-.05-.44,.03-.65,.05-.14,.14-.26,.27-.34Zm.62-3.09c.12-.08,.26-.09,.39-.03,.06,.03,.11,.05,.17,.08,.05,.03,.1,.07,.14,.12,.09,.1,.14,.25,.14,.4,0,.1-.03,.19-.07,.28-.02,.06-.06,.11-.09,.16-.02,.03-.05,.07-.08,.1l-.05,.05c-.04,.07-.1,.12-.17,.14-.12,.04-.25,.06-.37,.01-.08-.03-.15-.08-.2-.15-.05-.07-.08-.15-.1-.24-.01-.09-.02-.19-.01-.28,0-.13,.04-.24,.09-.36,.02-.06,.06-.11,.1-.16,.03-.04,.08-.08,.12-.11Z"/><path class="cls-1" d="M57.24,50.49c-.24-.28-.5-.6-.51-.6-.15-.21-.35-.51-.62-.91-.03-.07-.09-.15-.13-.22-.21-.44-.25-.79-.17-1.12,.09-.32,.29-.62,.52-.97,.03-.03,.1-.12,.1-.13,.02-.02,.34-.32,.45-.43,.86-.79,1.93-.23,2.83,.33,.04,.03,.16,.1,.16,.1,.71,.46,.48,.3,.75,.46,.05,.03,.06,.06,.09,.14,.05,.1-.16,.39-.19,.44-.03,.04-.26,.41-.29,.45,0,0-.02,.03-.03,.04-.03,.04-.13,.17-.24,.26-.07,.06-.18,.07-.26,.03-.03-.02-.07-.04-.09-.05-.02-.01-.2-.15-.21-.16-.32-.29-.51-.47-.66-.6-.01-.01-.27-.21-.31-.25-.01,0-.03-.02-.05-.03-.14-.1-.26-.2-.43-.23-.2-.03-.39,.06-.51,.24-.22,.3-.31,.69-.02,1.02,.08,.1,.47,.56,.57,.65,0,0,.55,.49,.59,.52,0,0,.04,.03,.05,.04,.38,.31,.08,.66-.19,.96-.02,.02-.03,.03-.05,.05-.09,.1-.39,.48-.54,.4-.41-.22-.57-.35-.64-.42Zm2.33-.12c.15-.02,.28,.05,.37,.15,.03,.03,.05,.06,.08,.09,.03,.04,.07,.09,.08,.14,.05,.13,.05,.26,0,.4-.06,.15-.18,.27-.32,.35-.03,.02-.07,.04-.11,.05-.03,.01-.07,.03-.1,.04l-.03,.02s-.08,.04-.13,.04c-.04,.01-.08,.01-.12,0-.13-.01-.24-.06-.34-.15-.1-.1-.13-.26-.1-.4,.05-.21,.15-.41,.32-.56,.11-.1,.25-.16,.4-.18Zm1.88-2.54c.14-.02,.27,.02,.37,.13,.04,.05,.08,.09,.12,.15,.03,.05,.06,.11,.07,.16,.04,.13,.01,.28-.05,.41-.05,.09-.11,.15-.19,.22-.05,.04-.1,.07-.16,.1-.04,.02-.07,.04-.11,.05l-.07,.02c-.07,.04-.15,.06-.22,.05-.13-.02-.26-.05-.35-.15-.06-.06-.1-.13-.11-.22-.01-.09,0-.17,.02-.25,.03-.09,.07-.18,.12-.25,.07-.11,.14-.2,.25-.28,.05-.04,.11-.07,.16-.1,.05-.02,.11-.04,.16-.05Z"/></g><g><path class="cls-4" d="M53.76,53.75c-.18-.32-.39-.67-.39-.68-.11-.23-.25-.56-.44-1-.02-.08-.06-.17-.09-.24-.13-.46-.1-.82,.04-1.12,.13-.32,.36-.6,.66-.88,.03-.03,.12-.1,.12-.1,.02-.02,.39-.25,.53-.34,.99-.62,1.91,.07,2.72,.8,.04,.03,.14,.12,.14,.13,.62,.58,.42,.38,.65,.58,.05,.04,.05,.07,.06,.15,.02,.1-.21,.37-.25,.41-.03,.05-.32,.37-.36,.4,0,0-.03,.02-.03,.03-.03,.03-.16,.14-.28,.21-.08,.05-.19,.04-.27-.02-.03-.03-.06-.05-.08-.06-.02-.02-.17-.18-.17-.2-.26-.34-.42-.55-.54-.71-.01-.01-.23-.26-.27-.3-.01-.01-.03-.03-.04-.04-.12-.13-.22-.24-.38-.3-.19-.07-.39,0-.55,.14-.27,.26-.44,.61-.2,.99,.07,.11,.38,.64,.45,.75,0,0,.46,.58,.49,.62,0,0,.03,.04,.04,.05,.33,.38-.02,.69-.35,.92-.02,.02-.04,.03-.06,.04-.11,.08-.48,.4-.61,.29-.37-.29-.51-.44-.56-.53Zm2.32,.29c.15,0,.26,.09,.34,.21,.02,.03,.04,.07,.06,.1,.02,.05,.05,.1,.06,.16,.02,.14,.02,.28-.07,.4-.09,.13-.23,.22-.38,.28-.04,.01-.08,.02-.12,.03-.04,0-.07,.01-.11,.02h-.03s-.09,.03-.13,.03c-.04,0-.08,0-.12-.02-.13-.04-.23-.1-.31-.2-.08-.11-.08-.28-.02-.41,.09-.19,.23-.37,.42-.49,.13-.07,.27-.12,.42-.12Zm2.27-2.19c.14,0,.26,.07,.34,.19,.03,.05,.07,.11,.09,.16,.02,.05,.04,.12,.05,.18,.02,.14-.02,.29-.1,.42-.05,.09-.14,.13-.22,.18-.06,.03-.11,.05-.18,.07-.04,0-.08,.02-.12,.03h-.08c-.07,.04-.16,.05-.23,.02-.12-.04-.25-.1-.32-.21-.04-.07-.08-.15-.07-.23,0-.09,.02-.16,.07-.24,.04-.08,.1-.16,.16-.23,.09-.09,.18-.17,.28-.24,.05-.03,.11-.06,.17-.08,.05-.02,.11-.03,.16-.02Z"/><path class="cls-4" d="M43.07,58.9c-.03-.37-.07-.78-.07-.78,0-.26,0-.62,.02-1.11,.01-.08,.02-.18,.02-.26,.15-.97,.7-1.26,1.49-1.49,.04-.01,.15-.05,.16-.05,.03-.01,.46-.08,.62-.1,1.14-.18,1.71,.91,2.13,1.89,.02,.05,.07,.17,.08,.18,.31,.79,.22,.52,.34,.81,.02,.06,.01,.08,0,.16-.02,.09-.36,.22-.41,.24-.05,.02-.45,.19-.5,.21,0,0-.03,.01-.04,.02-.04,.02-.2,.07-.34,.08-.1,.01-.19-.04-.23-.12-.02-.04-.03-.07-.04-.09,0-.02-.08-.24-.07-.25-.09-.42-.15-.68-.19-.88,0-.02-.1-.33-.12-.38,0-.02-.01-.04-.02-.06-.06-.17-.1-.31-.22-.43-.14-.14-.35-.17-.55-.09-.35,.15-.66,.35-.61,.79,.01,.13,.07,.73,.09,.86,0,0,.17,.72,.18,.76,0,0,.01,.05,.02,.06,.13,.48-.31,.59-.7,.69-.03,0-.04,.01-.07,.02-.13,.03-.6,.18-.67,.03-.21-.41-.27-.61-.28-.71Zm1.97,1.21c.13,.07,.2,.2,.22,.34,0,.04,.01,.08,.01,.12,0,.05,0,.11-.01,.17-.04,.13-.11,.25-.23,.33-.14,.09-.3,.12-.46,.11-.04,0-.08,0-.12-.02-.04,0-.07-.01-.11-.02h-.03s-.09-.01-.13-.04c-.04-.01-.07-.04-.1-.07-.1-.08-.17-.18-.19-.31-.03-.14,.04-.29,.15-.39,.16-.14,.36-.26,.58-.28,.15-.02,.3,0,.43,.07Zm2.99-1.01c.13,.07,.21,.18,.23,.32,0,.06,.01,.12,.01,.18,0,.06-.01,.12-.03,.17-.04,.13-.15,.24-.28,.31-.09,.05-.18,.07-.27,.08-.06,0-.12,0-.19,0-.04,0-.08-.01-.12-.02l-.07-.02c-.08,0-.16-.03-.21-.08-.09-.09-.18-.19-.2-.32-.01-.08,0-.17,.03-.25,.04-.08,.09-.14,.16-.2,.07-.06,.16-.11,.24-.15,.12-.06,.23-.08,.36-.1,.06,0,.13,0,.19,.01,.05,0,.11,.03,.16,.05Z"/><path class="cls-1" d="M31.21,59.03c.13-.34,.27-.73,.27-.73,.1-.23,.27-.55,.48-.98,.05-.07,.09-.15,.13-.22,.54-.78,1.17-.89,1.99-.76,.04,0,.15,.03,.16,.03,.02,0,.44,.15,.6,.21,1.12,.27,1.17,1.51,1.13,2.57,0,.05,0,.18,0,.19-.05,.85-.02,.56-.03,.88,0,.06-.02,.08-.07,.14-.06,.08-.42,.06-.47,.06-.05,0-.49,0-.54,0,0,0-.04,0-.04,0-.05,0-.21-.02-.34-.06-.09-.04-.15-.12-.16-.22,0-.04,0-.08,0-.1,0-.02,.03-.25,.04-.26,.09-.42,.15-.68,.19-.87,0-.02,.05-.34,.06-.39,0-.02,0-.04,0-.06,.02-.18,.04-.32-.02-.48-.07-.19-.24-.32-.46-.35-.37-.06-.75,.04-.89,.46-.04,.12-.25,.7-.28,.82,0,0-.15,.73-.16,.77,0,0,0,.05-.01,.07-.08,.49-.54,.42-.93,.36-.03,0-.04,0-.07-.01-.13-.03-.61-.12-.61-.29-.02-.47,.02-.68,.05-.77Zm1.27,1.94c.09,.12,.09,.26,.05,.39-.01,.04-.02,.07-.04,.11-.02,.05-.04,.1-.08,.15-.09,.11-.21,.19-.35,.21-.16,.03-.32-.01-.47-.08-.04-.02-.07-.04-.1-.06-.03-.02-.06-.05-.09-.07l-.03-.02s-.07-.05-.1-.09c-.03-.03-.05-.07-.06-.11-.05-.12-.07-.24-.04-.37,.04-.14,.16-.24,.3-.28,.2-.04,.44-.08,.64-.02,.15,.04,.27,.12,.36,.23Zm3.14,.34c.09,.11,.12,.25,.07,.39-.02,.06-.04,.12-.07,.17-.03,.05-.06,.1-.1,.15-.1,.1-.24,.16-.39,.18-.1,0-.19-.01-.28-.04-.06-.02-.11-.05-.17-.08-.04-.02-.07-.04-.1-.07l-.06-.05c-.07-.03-.13-.09-.16-.16-.05-.12-.08-.25-.04-.38,.02-.08,.07-.15,.13-.2,.07-.06,.14-.1,.23-.12,.09-.02,.19-.04,.28-.04,.13,0,.25,.01,.37,.05,.06,.02,.12,.05,.17,.09,.05,.03,.09,.07,.12,.11Z"/></g><g><path class="cls-4" d="M26.63,57.66c.18-.32,.39-.67,.39-.67,.14-.21,.36-.49,.65-.89,.06-.06,.11-.14,.17-.2,.68-.71,1.3-.67,2.08-.39,.04,.02,.14,.06,.15,.06,.02,.02,.42,.2,.56,.27,1.05,.49,.88,1.71,.66,2.75-.01,.05-.04,.18-.04,.19-.19,.82-.12,.55-.18,.86-.01,.06-.04,.07-.1,.13-.07,.06-.42-.02-.47-.03-.05,0-.48-.09-.53-.1,0,0-.03,0-.04-.01-.04-.01-.21-.06-.33-.12-.09-.04-.13-.14-.12-.23,0-.04,.01-.08,.02-.1,0-.02,.07-.24,.08-.25,.17-.4,.27-.65,.34-.83,0-.02,.11-.33,.12-.38,0-.02,.01-.04,.02-.06,.05-.17,.1-.31,.07-.48-.04-.2-.2-.32-.4-.39-.35-.13-.74-.1-.95,.28-.06,.11-.37,.64-.42,.76,0,0-.27,.69-.29,.73,0,0-.02,.05-.02,.06-.16,.47-.6,.31-.97,.18-.02,0-.04-.02-.07-.02-.12-.05-.6-.18-.57-.36,.07-.47,.13-.66,.18-.75Zm.92,2.12c.07,.13,.05,.28-.02,.4-.02,.03-.04,.07-.06,.1-.03,.04-.06,.09-.11,.13-.11,.09-.23,.14-.38,.14-.16,0-.32-.07-.44-.17-.03-.02-.06-.05-.09-.08l-.08-.08-.02-.02s-.07-.06-.08-.1c-.02-.03-.04-.07-.04-.11-.03-.12-.03-.24,.02-.36,.06-.13,.2-.22,.35-.24,.21-.03,.45,0,.64,.09,.14,.07,.24,.17,.31,.3Zm3.03,.89c.07,.13,.07,.27,0,.39-.03,.05-.06,.11-.1,.16-.03,.05-.08,.09-.13,.13-.11,.08-.26,.12-.41,.1-.1,0-.18-.05-.27-.09-.06-.03-.1-.07-.15-.11-.03-.03-.06-.06-.09-.09l-.05-.06c-.06-.05-.11-.12-.13-.19-.03-.12-.04-.26,.02-.37,.04-.07,.09-.14,.17-.18,.08-.04,.16-.07,.25-.08,.09,0,.19,0,.28,.01,.13,.02,.24,.06,.35,.12,.05,.03,.1,.07,.15,.12,.04,.04,.07,.08,.1,.13Z"/><path class="cls-4" d="M16.84,50.96c.3-.21,.64-.45,.64-.45,.22-.13,.54-.3,.96-.53,.08-.03,.16-.07,.23-.11,.91-.35,1.41,0,2.05,.53,.03,.03,.11,.11,.12,.11,.02,.02,.29,.37,.39,.5,.7,.94,.08,1.92-.57,2.79-.03,.04-.11,.15-.12,.15-.52,.67-.34,.45-.52,.7-.04,.05-.06,.05-.14,.08-.09,.03-.39-.18-.43-.21-.04-.03-.38-.3-.42-.33l-.03-.03s-.16-.15-.23-.26c-.06-.08-.06-.18,0-.27,.02-.03,.04-.06,.06-.08,.02-.02,.16-.18,.18-.19,.32-.29,.51-.47,.66-.6,.01-.01,.24-.25,.27-.29,.01-.01,.03-.03,.04-.04,.11-.13,.22-.24,.26-.41,.05-.2-.03-.39-.19-.54-.28-.25-.65-.38-1.01-.11-.1,.08-.61,.43-.7,.52,0,0-.54,.51-.57,.54,0,0-.04,.04-.05,.05-.35,.35-.66,.02-.93-.28-.02-.02-.03-.03-.05-.05-.09-.1-.44-.44-.35-.58,.25-.39,.4-.54,.48-.6Zm-.09,2.34c0,.15-.08,.27-.19,.36-.03,.02-.06,.05-.1,.07-.05,.03-.09,.06-.15,.07-.13,.03-.27,.03-.4-.04-.14-.08-.25-.21-.32-.35-.02-.04-.03-.07-.04-.11-.01-.04-.02-.07-.03-.11v-.03s-.04-.09-.04-.13c0-.04,0-.08,.01-.12,.02-.13,.08-.24,.18-.32,.11-.09,.27-.11,.41-.06,.2,.07,.4,.19,.52,.37,.09,.12,.14,.26,.15,.41Zm2.38,2.08c0,.14-.05,.27-.16,.35-.05,.04-.1,.08-.16,.11-.05,.03-.11,.05-.17,.06-.14,.04-.29,0-.41-.08-.08-.05-.14-.13-.2-.21-.04-.05-.06-.11-.08-.17-.01-.04-.03-.08-.04-.12l-.02-.07c-.03-.07-.05-.16-.03-.23,.03-.12,.08-.25,.18-.33,.07-.05,.14-.09,.23-.09,.09,0,.17,0,.25,.04,.08,.04,.17,.08,.24,.14,.11,.08,.18,.16,.26,.27,.03,.05,.06,.11,.09,.17,.02,.05,.03,.1,.04,.16Z"/><path class="cls-1" d="M10.77,40.77c.36-.06,.77-.14,.78-.14,.26-.03,.62-.05,1.11-.08,.08,0,.18,0,.26,0,.98,.07,1.34,.57,1.63,1.35,.01,.04,.05,.15,.05,.16,0,.03,.12,.45,.16,.6,.3,1.11-.75,1.78-1.69,2.28-.04,.02-.16,.09-.17,.09-.76,.38-.5,.26-.77,.41-.06,.03-.08,.02-.16,0-.1-.01-.26-.34-.28-.38-.03-.05-.24-.43-.26-.47,0,0-.02-.03-.02-.04-.02-.04-.09-.2-.11-.33-.02-.09,.02-.19,.1-.24,.03-.02,.07-.04,.09-.05,.02-.01,.23-.1,.25-.1,.41-.13,.67-.21,.86-.27,.02,0,.32-.13,.37-.15,.02,0,.04-.02,.05-.02,.16-.07,.3-.13,.41-.26,.13-.16,.13-.36,.04-.56-.13-.35-.39-.63-.82-.55-.13,.02-.73,.13-.85,.17,0,0-.71,.23-.75,.25,0,0-.05,.02-.06,.02-.46,.17-.62-.26-.76-.63,0-.02-.01-.04-.02-.07-.04-.12-.24-.57-.09-.66,.39-.25,.58-.32,.68-.34Zm-1.02,2.06c-.06,.14-.18,.21-.32,.24-.04,0-.08,.02-.12,.02-.05,0-.11,.01-.17,0-.14-.02-.26-.09-.35-.2-.1-.13-.15-.29-.15-.45,0-.04,0-.08,0-.12,0-.04,0-.07,.01-.11v-.03s0-.09,.02-.13c.01-.04,.03-.08,.06-.11,.07-.1,.17-.18,.29-.22,.14-.04,.3,.02,.4,.12,.16,.15,.29,.34,.34,.55,.03,.15,.03,.29-.03,.43Zm1.26,2.89c-.06,.14-.16,.23-.3,.25-.06,.01-.12,.03-.18,.03-.06,0-.12,0-.18-.02-.14-.03-.26-.13-.34-.25-.06-.08-.08-.17-.1-.27-.01-.06-.01-.12-.01-.18,0-.04,0-.08,0-.12v-.07c.01-.08,.03-.16,.07-.22,.08-.1,.17-.2,.3-.23,.08-.02,.17-.02,.25,.01,.08,.03,.15,.08,.22,.14,.06,.07,.12,.14,.17,.22,.07,.11,.11,.22,.13,.35,.01,.06,.01,.13,0,.19,0,.05-.02,.11-.04,.16Z"/></g><g><path class="cls-4" d="M9.7,36.11c.37,0,.78,0,.79,0,.26,.02,.61,.06,1.1,.12,.08,.02,.17,.03,.25,.04,.96,.23,1.14,.81,1.37,1.61,0,.04,.03,.15,.03,.16,0,.03,.03,.46,.04,.62,.07,1.16-1.08,1.63-2.09,1.96-.05,.02-.18,.06-.18,.06-.81,.25-.54,.17-.83,.27-.06,.02-.08,0-.16-.02-.09-.03-.18-.38-.2-.43-.02-.05-.15-.46-.16-.51,0,0,0-.03-.01-.04-.01-.04-.04-.21-.05-.35,0-.1,.06-.18,.15-.22,.04-.01,.07-.03,.09-.03,.02,0,.24-.06,.26-.05,.43-.06,.69-.09,.89-.12,.02,0,.34-.07,.39-.08,.02,0,.04-.01,.06-.01,.17-.04,.32-.07,.45-.18,.15-.13,.2-.33,.14-.55-.09-.36-.34-.68-.77-.67-.13,0-.73,0-.86,.02,0,0-.73,.11-.78,.11,0,0-.05,0-.07,.01-.49,.09-.55-.37-.61-.76,0-.03,0-.04-.01-.07-.02-.13-.12-.61,.04-.67,.43-.18,.63-.22,.73-.22Zm-1.4,1.86c-.08,.13-.22,.18-.36,.19-.04,0-.08,0-.12,0-.05,0-.11,0-.16-.03-.13-.05-.24-.13-.3-.26-.07-.14-.08-.31-.06-.47,0-.04,.02-.08,.03-.12,.01-.03,.02-.07,.03-.11v-.03s.03-.09,.05-.12c.02-.04,.04-.07,.08-.09,.09-.09,.2-.15,.33-.16,.14-.01,.29,.07,.37,.18,.12,.17,.22,.38,.22,.6,0,.15-.03,.29-.11,.42Zm.74,3.07c-.08,.12-.2,.2-.34,.2-.06,0-.12,0-.18,0-.06,0-.12-.03-.17-.05-.13-.06-.23-.17-.28-.31-.04-.09-.05-.18-.05-.28,0-.06,.01-.12,.02-.18,0-.04,.02-.08,.03-.12l.03-.07c.01-.08,.05-.16,.1-.21,.1-.09,.21-.16,.34-.17,.08,0,.17,0,.24,.05,.07,.05,.13,.1,.18,.18,.05,.08,.09,.17,.12,.25,.04,.12,.06,.24,.06,.37,0,.06-.01,.13-.03,.19-.01,.05-.04,.11-.07,.15Z"/><path class="cls-4" d="M10.59,24.28c.33,.16,.7,.33,.71,.33,.22,.12,.52,.32,.93,.57,.06,.05,.14,.1,.21,.15,.77,.62,.79,1.24,.59,2.05-.01,.04-.05,.15-.05,.16,0,.03-.2,.43-.24,.58-.38,1.09-1.62,1.03-2.67,.9-.05,0-.18-.02-.19-.02-.84-.12-.56-.07-.87-.1-.06,0-.08-.03-.14-.09-.07-.07-.02-.42-.01-.48,0-.05,.05-.49,.05-.54,0,0,0-.04,0-.04,0-.05,.04-.21,.09-.34,.04-.09,.12-.14,.22-.14,.04,0,.08,0,.1,0,.02,0,.24,.05,.26,.06,.41,.13,.67,.21,.86,.27,.02,0,.34,.08,.39,.09,.02,0,.04,0,.06,.01,.17,.03,.32,.07,.48,.02,.18-.06,.32-.22,.38-.43,.09-.36,.03-.75-.37-.92-.12-.05-.67-.31-.79-.35,0,0-.71-.21-.75-.23,0,0-.05-.01-.06-.02-.48-.12-.37-.57-.27-.96,0-.03,.01-.04,.02-.07,.02-.13,.15-.6,.33-.59,.47,.03,.67,.07,.76,.12Zm-2.04,1.1c-.12,.08-.27,.07-.4,.02-.04-.01-.07-.03-.11-.05-.05-.03-.1-.05-.14-.09-.1-.1-.17-.22-.18-.37-.01-.16,.04-.32,.13-.46,.02-.03,.05-.07,.07-.1l.07-.08,.02-.03s.05-.07,.09-.09c.03-.03,.07-.05,.11-.05,.13-.04,.25-.05,.37,0,.13,.05,.22,.18,.26,.32,.05,.21,.05,.44-.03,.65-.05,.14-.14,.26-.27,.34Zm-.62,3.09c-.12,.08-.26,.09-.39,.03-.06-.03-.11-.05-.17-.08-.05-.03-.1-.07-.14-.12-.09-.1-.14-.25-.14-.4,0-.1,.03-.19,.07-.28,.02-.06,.06-.11,.09-.16,.02-.03,.05-.07,.08-.1l.05-.05c.04-.07,.1-.12,.17-.14,.12-.04,.25-.06,.37-.01,.08,.03,.15,.08,.2,.15,.05,.07,.08,.15,.1,.24,.01,.09,.02,.19,.01,.28,0,.13-.04,.24-.09,.36-.02,.06-.06,.11-.1,.16-.03,.04-.08,.08-.12,.11Z"/><path class="cls-1" d="M16.41,13.94c.24,.28,.5,.6,.51,.6,.15,.21,.35,.51,.62,.91,.03,.07,.09,.15,.13,.22,.21,.44,.25,.79,.17,1.12-.09,.32-.29,.62-.52,.97-.03,.03-.1,.12-.1,.13-.02,.02-.34,.32-.45,.43-.86,.79-1.93,.23-2.83-.33-.04-.03-.16-.1-.16-.1-.71-.46-.48-.3-.75-.46-.05-.03-.06-.06-.09-.14-.05-.1,.16-.39,.19-.44,.03-.04,.26-.41,.29-.45,0,0,.02-.03,.03-.04,.03-.04,.13-.17,.24-.26,.07-.06,.18-.07,.26-.03,.03,.02,.07,.04,.09,.05,.02,.01,.2,.15,.21,.16,.32,.29,.51,.47,.66,.6,.01,.01,.27,.21,.31,.25,.01,0,.03,.02,.05,.03,.14,.1,.26,.2,.43,.23,.2,.03,.39-.06,.51-.24,.22-.3,.31-.69,.02-1.02-.08-.1-.47-.56-.57-.65,0,0-.55-.49-.59-.52,0,0-.04-.03-.05-.04-.38-.31-.08-.66,.19-.96,.02-.02,.03-.03,.05-.05,.09-.1,.39-.48,.54-.4,.41,.22,.57,.35,.64,.42Zm-2.33,.12c-.15,.02-.28-.05-.37-.15-.03-.03-.05-.06-.08-.09-.03-.04-.07-.09-.08-.14-.05-.13-.05-.26,0-.4,.06-.15,.18-.27,.32-.35,.03-.02,.07-.04,.11-.05,.03-.01,.07-.03,.1-.04l.03-.02s.08-.04,.13-.04c.04-.01,.08-.01,.12,0,.13,.01,.24,.06,.34,.15,.1,.1,.13,.26,.1,.4-.05,.21-.15,.41-.32,.56-.11,.1-.25,.16-.4,.18Zm-1.88,2.54c-.14,.02-.27-.02-.37-.13-.04-.05-.08-.09-.12-.15-.03-.05-.06-.11-.07-.16-.04-.13-.01-.28,.05-.41,.05-.09,.11-.15,.19-.22,.05-.04,.1-.07,.16-.1,.04-.02,.07-.04,.11-.05l.07-.02c.07-.04,.15-.06,.22-.05,.13,.02,.26,.05,.35,.15,.06,.06,.1,.13,.11,.22,.01,.09,0,.17-.02,.25-.03,.09-.07,.18-.12,.25-.07,.11-.14,.2-.25,.28-.05,.04-.11,.07-.16,.1-.05,.02-.11,.04-.16,.05Z"/></g><g><path class="cls-4" d="M19.89,10.68c.18,.32,.39,.67,.39,.68,.11,.23,.25,.56,.44,1,.02,.08,.06,.17,.09,.24,.13,.46,.1,.82-.04,1.12-.13,.32-.36,.6-.66,.88-.03,.03-.12,.1-.12,.1-.02,.02-.39,.25-.53,.34-.99,.62-1.91-.07-2.72-.8-.04-.03-.14-.12-.14-.13-.62-.58-.42-.38-.65-.58-.05-.04-.05-.07-.06-.15-.02-.1,.21-.37,.25-.41,.03-.05,.32-.37,.36-.4,0,0,.03-.02,.03-.03,.03-.03,.16-.14,.28-.21,.08-.05,.19-.04,.27,.02,.03,.03,.06,.05,.08,.06,.02,.02,.17,.18,.17,.2,.26,.34,.42,.55,.54,.71,.01,.01,.23,.26,.27,.3,.01,.01,.03,.03,.04,.04,.12,.13,.22,.24,.38,.3,.19,.07,.39,0,.55-.14,.27-.26,.44-.61,.2-.99-.07-.11-.38-.64-.45-.75,0,0-.46-.58-.49-.62,0,0-.03-.04-.04-.05-.33-.38,.02-.69,.35-.92,.02-.02,.04-.03,.06-.04,.11-.08,.48-.4,.61-.29,.37,.29,.51,.44,.56,.53Zm-2.32-.29c-.15,0-.26-.09-.34-.21-.02-.03-.04-.07-.06-.1-.02-.05-.05-.1-.06-.16-.02-.14-.02-.28,.07-.4,.09-.13,.23-.22,.38-.28,.04-.01,.08-.02,.12-.03,.04,0,.07-.01,.11-.02h.03s.09-.03,.13-.03c.04,0,.08,0,.12,.02,.13,.04,.23,.1,.31,.2,.08,.11,.08,.28,.02,.41-.09,.19-.23,.37-.42,.49-.13,.07-.27,.12-.42,.12Zm-2.27,2.19c-.14,0-.26-.07-.34-.19-.03-.05-.07-.11-.09-.16-.02-.05-.04-.12-.05-.18-.02-.14,.02-.29,.1-.42,.05-.09,.14-.13,.22-.18,.06-.03,.11-.05,.18-.07,.04,0,.08-.02,.12-.03h.08c.07-.04,.16-.05,.23-.02,.12,.04,.25,.1,.32,.21,.04,.07,.08,.15,.07,.23,0,.09-.02,.16-.07,.24-.04,.08-.1,.16-.16,.23-.09,.09-.18,.17-.28,.24-.05,.03-.11,.06-.17,.08-.05,.02-.11,.03-.16,.02Z"/><path class="cls-4" d="M30.58,5.53c.03,.37,.07,.78,.07,.78,0,.26,0,.62-.02,1.11-.01,.08-.02,.18-.02,.26-.15,.97-.7,1.26-1.49,1.49-.04,.01-.15,.05-.16,.05-.03,.01-.46,.08-.62,.1-1.14,.18-1.71-.91-2.13-1.89-.02-.05-.07-.17-.08-.18-.31-.79-.22-.52-.34-.81-.02-.06-.01-.08,0-.16,.02-.09,.36-.22,.41-.24,.05-.02,.45-.19,.5-.21,0,0,.03-.01,.04-.02,.04-.02,.2-.07,.34-.08,.1-.01,.19,.04,.23,.12,.02,.04,.03,.07,.04,.09,0,.02,.08,.24,.07,.25,.09,.42,.15,.68,.19,.88,0,.02,.1,.33,.12,.38l.02,.06c.06,.17,.1,.31,.22,.43,.14,.14,.35,.17,.55,.09,.35-.15,.66-.35,.61-.79-.01-.13-.07-.73-.09-.86,0,0-.17-.72-.18-.76,0,0-.01-.05-.02-.06-.13-.48,.31-.59,.7-.69,.03,0,.04-.01,.07-.02,.13-.03,.6-.18,.67-.03,.21,.41,.27,.61,.28,.71Zm-1.97-1.21c-.13-.07-.2-.2-.22-.34,0-.04-.01-.08-.01-.12,0-.05,0-.11,.01-.17,.04-.13,.11-.25,.23-.33,.14-.09,.3-.12,.46-.11,.04,0,.08,0,.12,.02,.04,0,.07,.01,.11,.02h.03s.09,.01,.13,.04c.04,.01,.07,.04,.1,.07,.1,.08,.17,.18,.19,.31,.03,.14-.04,.29-.15,.39-.16,.14-.36,.26-.58,.28-.15,.02-.3,0-.43-.07Zm-2.99,1.01c-.13-.07-.21-.18-.23-.32,0-.06-.01-.12-.01-.18,0-.06,.01-.12,.03-.17,.04-.13,.15-.24,.28-.31,.09-.05,.18-.07,.27-.08,.06,0,.12,0,.19,0,.04,0,.08,.01,.12,.02l.07,.02c.08,0,.16,.03,.21,.08,.09,.09,.18,.19,.2,.32,.01,.08,0,.17-.03,.25-.04,.08-.09,.14-.16,.2-.07,.06-.16,.11-.24,.15-.12,.06-.23,.08-.36,.1-.06,0-.13,0-.19-.01-.05,0-.11-.03-.16-.05Z"/><path class="cls-1" d="M42.44,5.39c-.13,.34-.27,.73-.27,.73-.1,.23-.27,.55-.48,.98-.05,.07-.09,.15-.13,.22-.54,.78-1.17,.89-1.99,.76-.04,0-.15-.03-.16-.03-.02,0-.44-.15-.6-.21-1.12-.27-1.17-1.51-1.13-2.57,0-.05,0-.18,0-.19,.05-.85,.02-.56,.03-.88,0-.06,.02-.08,.07-.14,.06-.08,.42-.06,.47-.06,.05,0,.49,0,.54,0,0,0,.04,0,.04,0,.05,0,.21,.02,.34,.06,.09,.04,.15,.12,.16,.22,0,.04,0,.08,0,.1,0,.02-.03,.25-.04,.26-.09,.42-.15,.68-.19,.87,0,.02-.05,.34-.06,.39,0,.02,0,.04,0,.06-.02,.18-.04,.32,.02,.48,.07,.19,.24,.32,.46,.35,.37,.06,.75-.04,.89-.46,.04-.12,.25-.7,.28-.82,0,0,.15-.73,.16-.77,0,0,0-.05,.01-.07,.08-.49,.54-.42,.93-.36,.03,0,.04,0,.07,.01,.13,.03,.61,.12,.61,.29,.02,.47-.02,.68-.05,.77Zm-1.27-1.94c-.09-.12-.09-.26-.05-.39,.01-.04,.02-.07,.04-.11,.02-.05,.04-.1,.08-.15,.09-.11,.21-.19,.35-.21,.16-.03,.32,.01,.47,.08,.04,.02,.07,.04,.1,.06,.03,.02,.06,.05,.09,.07l.03,.02s.07,.05,.1,.09c.03,.03,.05,.07,.06,.11,.05,.12,.07,.24,.04,.37-.04,.14-.16,.24-.3,.28-.2,.04-.44,.08-.64,.02-.15-.04-.27-.12-.36-.23Zm-3.14-.34c-.09-.11-.12-.25-.07-.39,.02-.06,.04-.12,.07-.17,.03-.05,.06-.1,.1-.15,.1-.1,.24-.16,.39-.18,.1,0,.19,.01,.28,.04,.06,.02,.11,.05,.17,.08,.04,.02,.07,.04,.1,.07l.06,.05c.07,.03,.13,.09,.16,.16,.05,.12,.08,.25,.04,.38-.02,.08-.07,.15-.13,.2-.07,.06-.14,.1-.23,.12-.09,.02-.19,.04-.28,.04-.13,0-.25-.01-.37-.05-.06-.02-.12-.05-.17-.09-.05-.03-.09-.07-.12-.11Z"/></g><g><path class="cls-4" d="M47.01,6.76c-.18,.32-.39,.67-.39,.67-.14,.21-.36,.49-.65,.89-.06,.06-.11,.14-.17,.2-.68,.71-1.3,.67-2.08,.39-.04-.02-.14-.06-.15-.06-.02-.02-.42-.2-.56-.27-1.05-.49-.88-1.71-.66-2.75,.01-.05,.04-.18,.04-.19,.19-.82,.12-.55,.18-.86,.01-.06,.04-.07,.1-.13,.07-.06,.42,.02,.47,.03,.05,0,.48,.09,.53,.1,0,0,.03,0,.04,.01,.04,.01,.21,.06,.33,.12,.09,.04,.13,.14,.12,.23,0,.04-.01,.08-.02,.1,0,.02-.07,.24-.08,.25-.17,.4-.27,.65-.34,.83,0,.02-.11,.33-.12,.38,0,.02-.01,.04-.02,.06-.05,.17-.1,.31-.07,.48,.04,.2,.2,.32,.4,.39,.35,.13,.74,.1,.95-.28,.06-.11,.37-.64,.42-.76,0,0,.27-.69,.29-.73,0,0,.02-.05,.02-.06,.16-.47,.6-.31,.97-.18,.02,0,.04,.02,.07,.02,.12,.05,.6,.18,.57,.36-.07,.47-.13,.66-.18,.75Zm-.92-2.12c-.07-.13-.05-.28,.02-.4,.02-.03,.04-.07,.06-.1,.03-.04,.06-.09,.11-.13,.11-.09,.23-.14,.38-.14,.16,0,.32,.07,.44,.17,.03,.02,.06,.05,.09,.08l.08,.08,.02,.02s.07,.06,.08,.1c.02,.03,.04,.07,.04,.11,.03,.12,.03,.24-.02,.36-.06,.13-.2,.22-.35,.24-.21,.03-.45,0-.64-.09-.14-.07-.24-.17-.31-.3Zm-3.03-.89c-.07-.13-.07-.27,0-.39,.03-.05,.06-.11,.1-.16,.03-.05,.08-.09,.13-.13,.11-.08,.26-.12,.41-.1,.1,0,.18,.05,.27,.09,.06,.03,.1,.07,.15,.11,.03,.03,.06,.06,.09,.09l.05,.06c.06,.05,.11,.12,.13,.19,.03,.12,.04,.26-.02,.37-.04,.07-.09,.14-.17,.18-.08,.04-.16,.07-.25,.08-.09,0-.19,0-.28-.01-.13-.02-.24-.06-.35-.12-.05-.03-.1-.07-.15-.12-.04-.04-.07-.08-.1-.13Z"/><path class="cls-4" d="M56.81,13.47c-.3,.21-.64,.45-.64,.45-.22,.13-.54,.3-.96,.53-.08,.03-.16,.07-.23,.11-.91,.35-1.41,0-2.05-.53-.03-.03-.11-.11-.12-.11-.02-.02-.29-.37-.39-.5-.7-.94-.08-1.92,.57-2.79,.03-.04,.11-.15,.12-.15,.52-.67,.34-.45,.52-.7,.04-.05,.06-.05,.14-.08,.09-.03,.39,.18,.43,.21,.04,.03,.38,.3,.42,.33,0,0,.03,.02,.03,.03,.03,.03,.16,.15,.23,.26,.06,.08,.06,.18,0,.27-.02,.03-.04,.06-.06,.08-.02,.02-.16,.18-.18,.19-.32,.29-.51,.47-.66,.6-.01,.01-.24,.25-.27,.29-.01,.01-.03,.03-.04,.04-.11,.13-.22,.24-.26,.41-.05,.2,.03,.39,.19,.54,.28,.25,.65,.38,1.01,.11,.1-.08,.61-.43,.7-.52,0,0,.54-.51,.57-.54,0,0,.04-.04,.05-.05,.35-.35,.66-.02,.93,.28,.02,.02,.03,.03,.05,.05,.09,.1,.44,.44,.35,.58-.25,.39-.4,.54-.48,.6Zm.09-2.34c0-.15,.08-.27,.19-.36,.03-.02,.06-.05,.1-.07,.05-.03,.09-.06,.15-.07,.13-.03,.27-.03,.4,.04,.14,.08,.25,.21,.32,.35,.02,.04,.03,.07,.04,.11,.01,.04,.02,.07,.03,.11v.03s.04,.09,.04,.13c0,.04,0,.08-.01,.12-.02,.13-.08,.24-.18,.32-.11,.09-.27,.11-.41,.06-.2-.07-.4-.19-.52-.37-.09-.12-.14-.26-.15-.41Zm-2.38-2.08c0-.14,.05-.27,.16-.35,.05-.04,.1-.08,.16-.11,.05-.03,.11-.05,.17-.06,.14-.04,.29,0,.41,.08,.08,.05,.14,.13,.2,.21,.04,.05,.06,.11,.08,.17,.01,.04,.03,.08,.04,.12l.02,.07c.03,.07,.05,.16,.03,.23-.03,.12-.08,.25-.18,.33-.07,.05-.14,.09-.23,.09-.09,0-.17,0-.25-.04-.08-.04-.17-.08-.24-.14-.11-.08-.18-.16-.26-.27-.03-.05-.06-.11-.09-.17-.02-.05-.03-.1-.04-.16Z"/><path class="cls-1" d="M62.88,23.66c-.36,.06-.77,.14-.78,.14-.26,.03-.62,.05-1.11,.08-.08,0-.18,0-.26,0-.98-.07-1.34-.57-1.63-1.35-.01-.04-.05-.15-.05-.16,0-.03-.12-.45-.16-.6-.3-1.11,.75-1.78,1.69-2.28,.04-.02,.16-.09,.17-.09,.76-.38,.5-.26,.77-.41,.06-.03,.08-.02,.16,0,.1,.01,.26,.34,.28,.38,.03,.05,.24,.43,.26,.47,0,0,.02,.03,.02,.04,.02,.04,.09,.2,.11,.33,.02,.09-.02,.19-.1,.24-.03,.02-.07,.04-.09,.05-.02,.01-.23,.1-.25,.1-.41,.13-.67,.21-.86,.27-.02,0-.32,.13-.37,.15-.02,0-.04,.02-.05,.02-.16,.07-.3,.13-.41,.26-.13,.16-.13,.36-.04,.56,.13,.35,.39,.63,.82,.55,.13-.02,.73-.13,.85-.17,0,0,.71-.23,.75-.25,0,0,.05-.02,.06-.02,.46-.17,.62,.26,.76,.63,0,.03,.01,.04,.02,.07,.04,.12,.24,.57,.09,.66-.39,.25-.58,.32-.68,.34Zm1.02-2.06c.06-.14,.18-.21,.32-.24,.04,0,.08-.02,.12-.02,.05,0,.11-.01,.17,0,.14,.02,.26,.09,.35,.2,.1,.13,.15,.29,.15,.45,0,.04,0,.08,0,.12,0,.04,0,.07-.01,.11v.03s0,.09-.02,.13c-.01,.04-.03,.08-.06,.11-.07,.1-.17,.18-.29,.22-.14,.04-.3-.02-.4-.12-.16-.15-.29-.34-.34-.55-.03-.15-.03-.29,.03-.43Zm-1.26-2.89c.06-.14,.16-.23,.3-.25,.06-.01,.12-.03,.18-.03,.06,0,.12,0,.18,.02,.14,.03,.26,.13,.34,.25,.06,.08,.08,.17,.1,.27,.01,.06,.01,.12,.01,.18,0,.04,0,.08,0,.12v.07c-.01,.08-.03,.16-.07,.22-.08,.1-.17,.2-.3,.23-.08,.02-.17,.02-.25-.01-.08-.03-.15-.08-.22-.14-.06-.07-.12-.14-.17-.22-.07-.11-.11-.22-.13-.35-.01-.06-.01-.13,0-.19,0-.05,.02-.11,.04-.16Z"/></g></g><path class="cls-3" d="M36.84,56.15c-10.06,0-19.45-6.4-22.76-16.47-4.11-12.54,2.74-26.09,15.28-30.2,12.54-4.12,26.09,2.74,30.2,15.28,4.11,12.54-2.74,26.09-15.28,30.2-2.47,.81-4.98,1.2-7.45,1.2Zm-.03-46.57c-2.33,0-4.71,.36-7.04,1.13-11.86,3.89-18.34,16.71-14.45,28.56,3.89,11.86,16.71,18.34,28.56,14.45,11.86-3.89,18.34-16.71,14.45-28.56h0c-3.12-9.52-12-15.58-21.52-15.58Z"/><path class="cls-3" d="M36.79,64.43c-4.98,0-9.93-1.17-14.5-3.48-7.67-3.88-13.38-10.52-16.06-18.69C.7,25.38,9.92,7.16,26.79,1.62c8.17-2.68,16.9-2.02,24.57,1.86,7.67,3.88,13.38,10.52,16.06,18.69h0c5.54,16.87-3.69,35.1-20.55,40.63-3.3,1.08-6.69,1.62-10.07,1.62Zm.06-63.13c-3.24,0-6.5,.52-9.67,1.56C11,8.17,2.16,25.66,7.47,41.85c2.57,7.84,8.05,14.21,15.41,17.94s15.74,4.36,23.58,1.79c16.19-5.31,25.03-22.8,19.72-38.99h0c-2.57-7.84-8.05-14.21-15.41-17.94-4.39-2.22-9.14-3.34-13.92-3.34Z"/><rect class="cls-3" x=".24" y="24.6" width="75.64" height="17.63" rx="2.38" ry="2.38" transform="translate(-8.52 13.53) rotate(-18.17)"/><g><path class="cls-2" d="M16.56,43.62c.37-.12,.78-.33,1.16-.66,.39-.32,.71-.66,1.1-.79,.83-.27,1.6,.56,1.81,1.2,.16,.5,.04,1.01-.42,1.53-.64,.74-1.81,1.36-2.84,1.7-3.32,1.09-6.52-.35-7.73-4.03-1.29-3.94,.87-6.87,3.92-7.87,1.1-.36,2.36-.48,3.18-.3,.72,.16,1.11,.52,1.27,1,.2,.62,.13,1.77-.76,2.06-.41,.13-.89,.05-1.45,.02-.46-.03-.9,.02-1.32,.16-1.4,.46-2.25,1.82-1.59,3.83,.69,2.11,2.31,2.6,3.68,2.16Z"/><path class="cls-2" d="M27.67,39.8c.57-.19,.96-.32,1.35-.19,.39,.11,.67,.43,.88,1.07,.21,.64,.17,1.06-.08,1.38-.24,.34-.63,.46-1.2,.65l-4.21,1.38c-1.1,.36-1.64,.09-2-1.01l-2.73-8.32c-.19-.57-.31-.96-.17-1.36,.14-.4,.5-.7,1.21-.93,.71-.23,1.17-.21,1.52,.03,.35,.24,.48,.63,.67,1.2l2.27,6.92,2.48-.81Z"/><path class="cls-2" d="M32.51,33.32l1.67-.55c.57-.19,.96-.31,1.35-.21,.39,.11,.66,.39,.86,1,.19,.59,.14,.98-.11,1.29-.25,.32-.64,.45-1.21,.63l-1.67,.55,.62,1.9,2.66-.87c.57-.19,.96-.31,1.35-.21,.39,.11,.66,.39,.86,1,.19,.59,.14,.98-.11,1.29-.25,.32-.64,.45-1.21,.63l-4.22,1.39c-1.1,.36-1.64,.09-2-1.01l-2.77-8.45c-.36-1.1-.09-1.64,1.01-2l3.9-1.28c.57-.19,.96-.32,1.35-.21s.66,.39,.86,1c.19,.59,.14,.98-.11,1.29-.25,.32-.64,.45-1.21,.63l-2.34,.77,.47,1.42Z"/><path class="cls-2" d="M47,34.15l-3.96,1.3-.03,.99c-.04,1.15-.33,1.76-1.44,2.13-1.01,.33-1.51,.08-1.69-.49-.07-.21-.09-.46-.06-.83l.8-9.78c.08-1.03,.34-1.65,1.48-2.02,1.15-.38,1.69,0,2.33,.77l6.32,7.46c.21,.27,.33,.46,.39,.66,.21,.64-.18,1.14-1.19,1.47-1.06,.35-1.56,.1-2.33-.87l-.63-.79Zm-3.87-1.44l2.2-.72-2.08-2.62-.12,3.34Z"/><path class="cls-2" d="M55.4,32.08c.19,.57,.31,.96,.19,1.35-.13,.4-.46,.68-1.14,.9-.67,.22-1.12,.19-1.45-.05-.34-.24-.46-.63-.65-1.2l-2.6-7.93c-.21-.64-.46-1.4,.56-2.13,.46-.33,1.19-.69,2.38-1.08,.98-.32,2.08-.6,3.23-.47,1.41,.17,2.48,.97,2.98,2.5,.47,1.42,.19,2.73-.77,3.77l3.51,2.44c.82,.58,.74,1.55-.78,2.05-1.17,.38-1.78,.03-2.6-.62l-1.83-1.44c-.48-.39-.89-.79-.89-.79l-.92,.3,.79,2.4Zm-1.59-4.84s.25-.06,.5-.15c1.31-.43,1.66-1.11,1.41-1.88-.29-.89-1.08-.94-2-.64-.39,.13-.69,.29-.69,.29l.78,2.38Z"/><path class="cls-2" d="M62.8,25.19c-.27-.72-1.29-3.64-1.53-4.37-.13-.41-.23-.75-.08-1.09,.15-.38,.55-.71,1.19-.92,.64-.21,1.16-.18,1.51,.04,.32,.19,.45,.52,.58,.93,.24,.73,1.15,3.69,1.36,4.43,.2,.74,.13,1.41-1.08,1.81-1.21,.4-1.66-.1-1.94-.82Zm3.42,5.34c-1.05,.34-2-.15-2.33-1.18-.34-1.05,.13-2.01,1.17-2.35,1.05-.34,2,.15,2.34,1.2,.34,1.03-.13,1.99-1.18,2.33Z"/></g></svg>