<?xml version="1.0" encoding="UTF-8"?><svg id="Layer_1" xmlns="http://www.w3.org/2000/svg" viewBox="0 0 29.18 24.04"><defs><style>.cls-1{fill:#fff;}.cls-2{fill:#fff;}</style></defs><path class="cls-1" d="M15.83,1.25c3.09,.4,6.19,.8,9.28,1.2,1.27,.16,2.31,.75,3.09,1.76,.77,.98,1.09,2.11,.94,3.35-.38,3.2-.83,6.39-1.23,9.59-.12,.97-.44,1.86-1.08,2.61-.92,1.08-2.1,1.64-3.52,1.67-.24,0-.47-.01-.71-.04-1.84-.24-3.69-.48-5.53-.72-.11-.01-.18,.01-.26,.08-.79,.74-1.58,1.48-2.38,2.22-.28,.27-.56,.54-.85,.79-.52,.46-1.3,.31-1.64-.28-.71-1.22-1.42-2.44-2.13-3.66-.05-.08-.11-.12-.2-.13-1.86-.24-3.71-.48-5.57-.72-.85-.11-1.61-.43-2.28-.97C.67,17.12,.09,15.96,0,14.56c-.01-.24,0-.48,.03-.72,.42-3.27,.85-6.55,1.27-9.82C1.58,1.93,3.28,.27,5.36,.03c.4-.05,.8-.04,1.2,.02,3.09,.4,6.18,.8,9.27,1.2Z"/><path class="cls-2" d="M15.83,1.25c3.09,.4,6.19,.8,9.28,1.2,1.27,.16,2.31,.75,3.09,1.76,.77,.98,1.09,2.11,.94,3.35-.38,3.2-.83,6.39-1.23,9.59-.12,.97-.44,1.86-1.08,2.61-.92,1.08-2.1,1.64-3.52,1.67-.24,0-.47-.01-.71-.04-1.84-.24-3.69-.48-5.53-.72-.11-.01-.18,.01-.26,.08-.79,.74-1.58,1.48-2.38,2.22-.28,.27-.56,.54-.85,.79-.52,.46-1.3,.31-1.64-.28-.71-1.22-1.42-2.44-2.13-3.66-.05-.08-.11-.12-.2-.13-1.86-.24-3.71-.48-5.57-.72-.85-.11-1.61-.43-2.28-.97C.67,17.12,.09,15.96,0,14.56c-.01-.24,0-.48,.03-.72,.42-3.27,.85-6.55,1.27-9.82C1.58,1.93,3.28,.27,5.36,.03c.4-.05,.8-.04,1.2,.02,3.09,.4,6.18,.8,9.27,1.2Zm-3.62,3.88c-.09,0-.23-.02-.37-.02-.96,0-1.79,.36-2.47,1.03-.72,.72-1.08,1.6-1.06,2.62,.02,1.08,.48,1.99,1.16,2.8,.51,.6,1.04,1.19,1.56,1.79,.82,.94,1.64,1.88,2.46,2.82,.32,.37,.85,.44,1.25,.17,.42-.28,.84-.56,1.25-.85,1.08-.73,2.16-1.47,3.24-2.19,.46-.31,.9-.63,1.26-1.05,.66-.76,1.03-1.64,1.01-2.65-.01-1.14-.43-2.12-1.26-2.92-.9-.88-2.29-1.12-3.43-.58-.56,.27-1.03,.63-1.46,1.08-.07,.07-.1,.07-.16-.01-.18-.27-.38-.52-.6-.75-.65-.68-1.41-1.15-2.4-1.28Z"/></svg>